<svg width="80" height="80" viewBox="0 0 80 80" fill="none" xmlns="http://www.w3.org/2000/svg">
<path d="M15.4 60.4C18.8 57.8 22.6 55.75 26.8 54.25C31 52.75 35.4 52 40 52C44.6 52 49 52.75 53.2 54.25C57.4 55.75 61.2 57.8 64.6 60.4C66.9333 57.6667 68.75 54.5667 70.05 51.1C71.35 47.6333 72 43.9333 72 40C72 31.1333 68.8833 23.5833 62.65 17.35C56.4167 11.1167 48.8667 8 40 8C31.1333 8 23.5833 11.1167 17.35 17.35C11.1167 23.5833 8 31.1333 8 40C8 43.9333 8.65 47.6333 9.95 51.1C11.25 54.5667 13.0667 57.6667 15.4 60.4ZM40 44C36.0667 44 32.75 42.65 30.05 39.95C27.35 37.25 26 33.9333 26 30C26 26.0667 27.35 22.75 30.05 20.05C32.75 17.35 36.0667 16 40 16C43.9333 16 47.25 17.35 49.95 20.05C52.65 22.75 54 26.0667 54 30C54 33.9333 52.65 37.25 49.95 39.95C47.25 42.65 43.9333 44 40 44ZM40 80C34.4667 80 29.2667 78.95 24.4 76.85C19.5333 74.75 15.3 71.9 11.7 68.3C8.1 64.7 5.25 60.4667 3.15 55.6C1.05 50.7333 0 45.5333 0 40C0 34.4667 1.05 29.2667 3.15 24.4C5.25 19.5333 8.1 15.3 11.7 11.7C15.3 8.1 19.5333 5.25 24.4 3.15C29.2667 1.05 34.4667 0 40 0C45.5333 0 50.7333 1.05 55.6 3.15C60.4667 5.25 64.7 8.1 68.3 11.7C71.9 15.3 74.75 19.5333 76.85 24.4C78.95 29.2667 80 34.4667 80 40C80 45.5333 78.95 50.7333 76.85 55.6C74.75 60.4667 71.9 64.7 68.3 68.3C64.7 71.9 60.4667 74.75 55.6 76.85C50.7333 78.95 45.5333 80 40 80ZM40 72C43.5333 72 46.8667 71.4833 50 70.45C53.1333 69.4167 56 67.9333 58.6 66C56 64.0667 53.1333 62.5833 50 61.55C46.8667 60.5167 43.5333 60 40 60C36.4667 60 33.1333 60.5167 30 61.55C26.8667 62.5833 24 64.0667 21.4 66C24 67.9333 26.8667 69.4167 30 70.45C33.1333 71.4833 36.4667 72 40 72ZM40 36C41.7333 36 43.1667 35.4333 44.3 34.3C45.4333 33.1667 46 31.7333 46 30C46 28.2667 45.4333 26.8333 44.3 25.7C43.1667 24.5667 41.7333 24 40 24C38.2667 24 36.8333 24.5667 35.7 25.7C34.5667 26.8333 34 28.2667 34 30C34 31.7333 34.5667 33.1667 35.7 34.3C36.8333 35.4333 38.2667 36 40 36Z" fill="#262A33"/>
</svg>
